<svg width="217" height="229" viewBox="0 0 217 229" fill="none" xmlns="http://www.w3.org/2000/svg">
<path d="M206.56 195.464C189.638 211.477 168.078 222.382 144.606 226.8C121.134 231.218 96.8052 228.95 74.6953 220.284C52.5854 211.618 33.6878 196.942 20.3922 178.113C7.09653 159.283 0 137.146 0 114.5C0 91.854 7.09653 69.7166 20.3922 50.8872C33.6878 32.0578 52.5855 17.382 74.6953 8.71579C96.8052 0.0495596 121.134 -2.21792 144.606 2.2001C168.078 6.61811 189.638 17.5232 206.56 33.5363L179.384 59.2528C167.836 48.3259 153.124 40.8846 137.108 37.8699C121.092 34.8552 104.49 36.4025 89.4031 42.316C74.316 48.2296 61.4208 58.2439 52.3483 71.0925C43.2757 83.9412 38.4332 99.0471 38.4332 114.5C38.4332 129.953 43.2757 145.059 52.3483 157.907C61.4208 170.756 74.316 180.77 89.4031 186.684C104.49 192.598 121.092 194.145 137.108 191.13C153.124 188.115 167.836 180.674 179.384 169.747L206.56 195.464Z" fill="#FB471A"/>
<path d="M52.2642 51.0675C65.76 38.6206 82.9546 30.1442 101.674 26.7101C120.393 23.276 139.796 25.0385 157.429 31.7747C175.062 38.5109 190.133 49.9183 200.737 64.5543C211.34 79.1902 217 96.3975 217 114C217 131.603 211.34 148.81 200.737 163.446C190.133 178.082 175.062 189.489 157.429 196.225C139.796 202.961 120.393 204.724 101.674 201.29C82.9546 197.856 65.7599 189.379 52.2642 176.932L80.2341 151.136C88.1979 158.481 98.3445 163.483 109.391 165.51C120.437 167.536 131.886 166.496 142.292 162.521C152.697 158.546 161.591 151.815 167.848 143.178C174.105 134.541 177.445 124.387 177.445 114C177.445 103.613 174.105 93.4588 167.848 84.8221C161.591 76.1854 152.697 69.454 142.292 65.4789C131.886 61.5039 120.437 60.4639 109.391 62.4903C98.3445 64.5168 88.1979 69.5187 80.2341 76.8636L52.2642 51.0675Z" fill="#FFBA4A"/>
</svg>
